<?xml version="1.0" encoding="UTF-8"?>
<!DOCTYPE svg PUBLIC "-//W3C//DTD SVG 1.1//EN" "http://www.w3.org/Graphics/SVG/1.1/DTD/svg11.dtd">
<!-- Creator: CorelDRAW -->
<svg xmlns="http://www.w3.org/2000/svg" xml:space="preserve" width="2048px" height="2048px" style="shape-rendering:geometricPrecision; text-rendering:geometricPrecision; image-rendering:optimizeQuality; fill-rule:evenodd; clip-rule:evenodd"
viewBox="0 0 2048 2048"
 xmlns:xlink="http://www.w3.org/1999/xlink">
 <defs>
  <style type="text/css">
   <![CDATA[
    .fil1 {fill:none}
    .fil0 {fill:#8BC34A}
    .fil2 {fill:#FFFFFE;fill-rule:nonzero}
   ]]>
  </style>
 </defs>
 <g id="Layer_x0020_1">
  <metadata id="CorelCorpID_0Corel-Layer"/>
  <rect class="fil0" width="2048" height="2048"/>
  <rect class="fil1" x="255.999" y="255.999" width="1536" height="1536"/>
  <path class="fil2" d="M1476.31 1800.83c1.23071,1.05236 2.51811,1.99488 3.8504,2.82874l-281.798 0c-10.5732,0 -19.9477,-5.12953 -25.774,-13.0347 -4.2874,-4.95237 -10.3937,-11.9398 -19.6394,-22.441 -7.83426,-8.89961 -15.1276,-17.0847 -21.5882,-24.1807 -74.8465,-82.1575 -47.0162,-240.254 -25.4953,-362.516 5.47323,-31.089 10.513,-59.713 13.0476,-82.1906l31.7504 3.49961 -31.7988 -3.58583c1.8248,-16.1941 15.4394,-28.1953 31.3181,-28.4138 43.0595,-4.37953 84.1808,-15.8374 122.242,-34.0146 38.4036,-18.3402 73.5095,-43.4788 104.159,-75.0414l-0.0637796 -0.0614174c6.88938,-7.09607 16.2685,-10.311 25.4162,-9.61182 18.8043,-0.393307 27.652,-4.86024 37.741,-9.95552 8.74016,-4.41378 18.0957,-9.13701 32.2736,-13.5201l-0.0271654 -0.0885827c11.2441,-3.47362 22.9465,-0.434646 31.0512,6.96733 16.5496,12.7512 37.6087,20.1461 59.7591,22.891 25.9819,3.21851 52.9075,0.0307087 75.8469,-8.4378 19.3642,-7.15985 35.1851,-20.2878 47.5642,-37.3949 20.4685,-28.2862 31.7693,-67.1788 34.5154,-108.941 2.84292,-43.2166 -3.5067,-88.8792 -18.3591,-129.05 -13.7445,-37.1729 -34.6299,-69.1205 -61.95,-88.8898 -22.0701,-15.9709 -41.1059,-36.9957 -53.6918,-60.4748 -12.3378,-23.0162 -18.5032,-48.3898 -15.5811,-73.9997l-0.0437008 -0.00472441c0.0649607,-0.574016 0.145276,-1.14213 0.240945,-1.70551 6.46418,-60.9083 -8.82875,-116.988 -40.6926,-159.965 -31.6394,-42.6756 -79.839,-72.7902 -139.458,-82.1717 -32.7969,-5.10473 -57.0378,-16.8768 -80.6316,-28.3347 -30.8256,-14.9693 -60.2386,-29.2524 -106.141,-16.4658 -17.1614,4.77756 -31.7079,5.95512 -46.4681,2.60551 -14.8488,-3.37323 -27.8126,-10.8543 -41.5961,-23.348 -17.4307,-15.7807 -36.6508,-27.5634 -56.6741,-35.5418 -34.2,-13.6276 -70.9878,-16.1622 -105.35,-8.59253 -34.1327,7.52008 -65.6292,24.9638 -89.5111,51.3426 -13.1516,14.5252 -24.0969,31.813 -32.0209,51.7016 -9.35198,23.4154 -21.137,42.1843 -36.215,57.5493 -15.2043,15.4925 -33.2941,27.0969 -55.1611,36.0886l0.0401575 0.0980316c-0.487796,0.200788 -0.976772,0.387402 -1.46811,0.562205 -2.81457,1.15984 -5.58544,2.3504 -7.62284,3.45236 -1.12205,0.607087 -1.93347,1.07008 -2.06221,1.20827l-3.09685 -2.88071 -0.0744095 -0.00590552 3.18662 2.9752c-0.918898,0.983859 -1.88504,1.89685 -2.89252,2.73898 -14.9114,14.7295 -30.3756,20.3693 -47.1638,20.4709 -14.9185,0.0874016 -28.0465,-4.47874 -42.2292,-10.5201 -21.8799,-9.32127 -43.9052,-14.1225 -65.2831,-14.9457 -36.9166,-1.42323 -72.3237,8.76969 -102.11,27.8268 -29.7638,19.0429 -53.9764,47.0256 -68.5323,81.1949 -8.68465,20.3882 -13.9264,42.9225 -14.8547,67.0075l-31.8756 -1.12559 31.976 1.23307c-0.0366142,0.96378 -0.119291,1.91575 -0.238583,2.85473 -2.17205,38.5973 -17.2795,66.3863 -32.7638,94.8603 -20.8453,38.3351 -42.5894,78.3225 -11.6221,155.532l0.0767717 -0.0307087c3.44882,8.59843 2.89843,17.8087 -0.766536,25.5756 -6.69686,17.948 -6.76654,38.2063 -0.724016,57.4063 6.18898,19.663 18.8351,38.0611 37.4162,51.7016 35.3823,25.9595 66.4713,12.6413 103.514,-3.22914 52.6843,-22.5709 114.121,-48.8918 209.729,-17.0646l-10.0004 30.2504 10.1079 -30.3626c11.0929,3.69213 18.815,12.8728 21.1559,23.5181 26.7272,93.0839 63.9083,111.22 120.926,139.01 33.4949,16.324 72.8316,35.4981 120.636,71.0221l-19.0004 25.6252 19.0866 -25.6843c9.52087,7.07481 13.9819,18.4335 12.698,29.4272 -1.91103,23.4721 -3.24922,52.5662 -4.78583,86.08 -5.82993,127.09 -14.3965,313.741 -55.8792,394.148l-28.3748 -14.6256 28.4386 14.6717c-3.21969,6.24095 -8.20867,10.9724 -14.0362,13.9039 -61.2367,36.0166 -127.236,17.1331 -186.513,0.164173 -9.313,-2.66457 -13.5201,-3.91654 -16.2012,-4.65945 -23.3185,-6.43701 -46.1103,-10.8437 -68.4863,-11.7685 -19.9288,-0.822048 -39.7311,1.07362 -59.5713,6.73347 0.56693,-2.07166 0.93189,-4.23071 1.07126,-6.45827l-0.248032 -0.0153543c-0.536221,0.785434 -1.77047,3.72638 -2.02559,4.80945l0.0389764 0.0307087c0.320079,-0.158268 0.43937,-0.144095 0.201969,0.158268 -0.27874,0.355512 -0.335433,0.243307 -0.253937,-0.132284l0.0519685 -0.0259843 -0.0389764 -0.0307087 -0.0129921 0.056693c-0.93189,0.48189 -3.30473,2.22166 -3.95197,2.92205l0.0708662 0.222047 -0.0637796 0.0200788 0.0106299 0.034252c-0.212599,0.0555119 -0.227953,-0.0165354 -0.108662,-0.17126l-2.64685 -8.35276 -0.121654 -0.0956694 -31.9784 -2.00669c8.01379,10.2 21.8008,14.8914 34.8862,10.7209l-0.0307087 -0.0944883 0.0649607 -0.0188977 -0.011811 -0.0354331c1.69843,-0.539764 3.39803,-1.05236 5.09646,-1.53662 -3.90945,14.2984 -17.4272,24.3827 -32.804,23.4177 -17.6043,-1.10433 -30.9803,-16.2709 -29.876,-33.8752 0.694489,-10.7445 4.35709,-21.4571 11.4673,-30.5185 5.68111,-7.2378 13.3772,-13.2095 23.2748,-17.0221 1.09252,-0.487796 2.22047,-0.922442 3.3874,-1.29449l9.71576 30.489 -9.62481 -30.3756c29.2488,-9.32009 57.9532,-12.4854 86.53,-11.3055 27.8693,1.15276 55.3595,6.39331 82.9879,14.0197 13.4917,3.73701 14.9032,4.14567 16.6996,4.65945 44.1886,12.6508 93.1111,26.6481 130.232,9.62835 31.7693,-73.467 39.5327,-242.547 44.8819,-359.14 1.26142,-27.5055 2.39882,-52.2709 3.59764,-71.6209 -36.5185,-25.3736 -68.6528,-41.0363 -96.4796,-54.5989 -69.417,-33.8327 -115.702,-56.3965 -149.844,-164.025 -64.1894,-16.4339 -109.668,3.04016 -149.075,19.9228 -55.1906,23.6457 -101.511,43.487 -166.264,-4.02048 -30.0236,-22.0406 -50.5335,-52.0158 -60.665,-84.2032 -9.21851,-29.289 -9.81379,-60.5363 -1.16929,-89.5194 -35.6386,-97.578 -7.66654,-149.052 19.2036,-198.464 11.8866,-21.861 23.4898,-43.1941 25.0418,-67.5697 -0.0188977,-0.699213 -0.0177165,-1.40197 0.00944883,-2.11063l0.0992127 0.00354331 0.0011811 -0.0200788 0.00472441 0c1.25906,-32.2914 8.26182,-62.4284 19.8508,-89.6316 19.6524,-46.1327 52.526,-84.0284 93.0331,-109.945 40.4859,-25.9028 88.5509,-39.7583 138.611,-37.8284 29.1709,1.12441 58.8898,7.5319 88.0312,19.9465 7.40079,3.15236 13.5579,5.53937 16.9795,5.5193 0.346063,-0.0011811 0.948426,-0.379134 1.93465,-1.29803 0.50315,-0.627166 1.03347,-1.24016 1.59095,-1.8378l0.0519685 0.0496063c5.51339,-5.89371 11.8913,-10.3299 18.5256,-13.9205 4.83544,-2.61732 9.35434,-4.58741 13.6217,-6.34843 0.453544,-0.211417 0.911812,-0.414567 1.37953,-0.607087l0.0141732 0.034252 0.155906 -0.0637796 0.0259843 0.0625985c13.7539,-5.67284 24.8445,-12.6886 33.7642,-21.7772 9.07914,-9.25276 16.3914,-21.0933 22.4646,-36.2988 10.8343,-27.1925 25.8839,-50.9221 44.0209,-70.9536 33.2233,-36.6969 76.4859,-60.8398 123.012,-71.0906 46.2957,-10.2 96.0792,-6.69567 142.599,11.8406 26.9185,10.7256 52.6737,26.4898 75.926,47.5418 5.38347,4.88032 9.43702,7.57442 12.8457,8.34804 3.50079,0.793701 8.46733,0.0944883 15.4665,-1.85433 69.1087,-19.2508 109.042,0.141732 150.893,20.465 19.5614,9.49961 39.6603,19.2603 62.6315,22.8355 77.0528,12.1252 139.613,51.4063 180.957,107.171 41.3221,55.7351 61.2225,127.583 52.9583,204.817 -0.034252,0.700394 -0.0885827,1.40433 -0.168898,2.11063l-31.7941 -3.62835 31.7504 3.62481c-1.37835,12.0874 1.89921,24.7524 8.3315,36.7512 7.82245,14.5937 20.2276,28.0772 34.9406,38.7237 38.1248,27.5882 66.5032,70.1044 84.4501,118.642 17.8736,48.3426 25.5213,103.201 22.1103,155.048 -3.50551,53.2985 -18.7146,104.023 -46.5154,142.442 -19.5662,27.0378 -45.2292,48.0307 -77.3162,59.8949 -32.1839,11.8807 -69.6768,16.389 -105.597,11.9386 -27.6378,-3.42402 -54.6508,-12.15 -78.1312,-26.8807 -2.95512,1.36772 -5.72953,2.76969 -8.42481,4.13032 -15.2102,7.6819 -28.7339,14.5099 -55.2496,16.2862 -33.9012,32.9422 -71.9977,59.4343 -113.252,79.1351 -37.7611,18.0331 -78.3071,30.411 -120.833,36.8752 -2.82047,19.0099 -6.42048,39.4571 -10.2272,61.0796 -19.1587,108.845 -43.9359,249.591 9.74646,308.516 8.3882,9.21261 15.7288,17.4236 22.337,24.9295 2.54055,2.88544 6.68741,7.66064 11.9315,13.7244l269.895 0c6.5315,0 12.6177,1.07008 18.2114,2.9941 6.35906,2.19331 11.9764,5.51457 16.8225,9.67796 13.3925,11.4591 14.9599,31.6075 3.50079,45 -10.4067,12.1618 -27.978,14.5713 -41.1496,6.32953l2.61496 0 0 -0.0602363c0.106299,0.0366142 0.121654,0.0602363 0,0.0602363l0 -0.0602363c-0.36378,-0.126378 -1.79173,-0.415748 -2.4,-0.498426 0.105118,0.0980316 0.0791339,0.126378 -0.138189,0.0519685 -0.209055,-0.0720473 -0.164173,-0.0874016 0.0236221,-0.0673229l0.0212599 -0.0637796 0.0933072 0.0791339 -0.114567 -0.0153543 0.0212599 -0.0637796c-0.637796,-0.50315 -3.1004,-1.95354 -3.88229,-2.29606l-0.0897638 0.105118zm-922.1 -19.0819l-0.0283465 -0.0897638 -0.0933072 -0.00590552 0.121654 0.0956694zm0.011811 -0.0874016l0.0413386 0.12874 0.0673229 0.0531496 2.61732 8.15316 -0.0507874 0.0578741 -2.63386 -8.26418 0.0673229 0.0531496 -0.056693 -0.178347 -0.0519685 -0.00354331z"/>
 </g>
</svg>
